<svg xmlns="http://www.w3.org/2000/svg" width="1600" height="900" viewBox="0 0 1600 900" role="img" aria-labelledby="title desc">
  <title id="title">Agenda de reservas CitaFácil</title>
  <desc id="desc">Panel diario con calendario, horarios disponibles, próximas citas y estados de atención.</desc>
  <defs><linearGradient id="bg" x1="0" y1="0" x2="1" y2="1"><stop stop-color="#251523"/><stop offset="1" stop-color="#0f0d15"/></linearGradient><filter id="s"><feDropShadow dy="15" stdDeviation="18" flood-opacity=".25"/></filter></defs>
  <rect width="1600" height="900" rx="32" fill="url(#bg)"/>
  <rect x="36" y="36" width="1528" height="828" rx="25" fill="#17131d" stroke="#3a2938"/>
  <rect x="36" y="36" width="228" height="828" rx="25" fill="#1d1723"/>
  <circle cx="77" cy="79" r="21" fill="#ff8fc5"/><path d="M68 78h18M77 69v18" stroke="#2a1422" stroke-width="3"/><text x="110" y="87" fill="#fff3f9" font-size="27" font-weight="700" font-family="Arial, sans-serif">CitaFácil</text>
  <text x="62" y="147" fill="#806f7e" font-size="13" letter-spacing="2" font-family="Arial, sans-serif">AGENDA</text>
  <rect x="53" y="173" width="194" height="51" rx="13" fill="#ff8fc5"/><text x="82" y="205" fill="#291620" font-size="17" font-weight="700" font-family="Arial, sans-serif">Calendario</text>
  <g fill="#a38e9f" font-size="16" font-family="Arial, sans-serif"><text x="82" y="270">Citas</text><text x="82" y="324">Clientes</text><text x="82" y="378">Servicios</text><text x="82" y="432">Equipo</text><text x="82" y="486">Configuración</text></g>
  <rect x="53" y="731" width="194" height="101" rx="15" fill="#261d2a"/><circle cx="82" cy="769" r="17" fill="#56404f"/><text x="108" y="766" fill="#f0e7ee" font-size="14" font-family="Arial, sans-serif">Administrador</text><text x="108" y="787" fill="#8e7d8a" font-size="12" font-family="Arial, sans-serif">Agenda principal</text><text x="70" y="817" fill="#ff8fc5" font-size="12" font-family="Arial, sans-serif">● Operativo</text>
  <text x="306" y="86" fill="#fff" font-size="30" font-weight="700" font-family="Arial, sans-serif">Agenda de hoy</text><text x="306" y="115" fill="#8d7b89" font-size="15" font-family="Arial, sans-serif">Lunes, 10 de agosto · datos de demostración</text>
  <rect x="1326" y="58" width="202" height="52" rx="14" fill="#ff8fc5"/><text x="1363" y="91" fill="#2a1722" font-size="16" font-weight="700" font-family="Arial, sans-serif">+ Nueva reserva</text>
  <g filter="url(#s)"><rect x="306" y="149" width="285" height="116" rx="18" fill="#211a26"/><rect x="611" y="149" width="285" height="116" rx="18" fill="#211a26"/><rect x="916" y="149" width="285" height="116" rx="18" fill="#211a26"/><rect x="1221" y="149" width="307" height="116" rx="18" fill="#2b1c27" stroke="#63354f"/></g>
  <g font-family="Arial, sans-serif"><text x="332" y="184" fill="#8e7b8a" font-size="13">CITAS DE HOY</text><text x="332" y="232" fill="#fff" font-size="35" font-weight="700">12</text><text x="382" y="232" fill="#a895a3" font-size="13">8 confirmadas</text><text x="637" y="184" fill="#8e7b8a" font-size="13">DISPONIBILIDAD</text><text x="637" y="232" fill="#fff" font-size="35" font-weight="700">6</text><text x="675" y="232" fill="#a895a3" font-size="13">horarios libres</text><text x="942" y="184" fill="#8e7b8a" font-size="13">OCUPACIÓN</text><text x="942" y="232" fill="#fff" font-size="35" font-weight="700">72%</text><text x="1247" y="184" fill="#c78da9" font-size="13">SIGUIENTE CITA</text><text x="1247" y="232" fill="#ff8fc5" font-size="29" font-weight="700">10:30 a. m.</text></g>

  <rect x="306" y="291" width="880" height="526" rx="20" fill="#1d1722" stroke="#392b38"/>
  <text x="334" y="333" fill="#fff" font-size="20" font-weight="700" font-family="Arial, sans-serif">Horario del equipo</text><text x="1004" y="333" fill="#a48f9f" font-size="14" font-family="Arial, sans-serif">Hoy</text><text x="1067" y="333" fill="#ff8fc5" font-size="14" font-family="Arial, sans-serif">Semana</text>
  <g fill="#907c8c" font-size="13" font-family="Arial, sans-serif"><text x="350" y="394">HORA</text><text x="470" y="394">PROFESIONAL 01</text><text x="720" y="394">PROFESIONAL 02</text><text x="970" y="394">PROFESIONAL 03</text></g>
  <g stroke="#342735"><line x1="334" y1="414" x2="1158" y2="414"/><line x1="334" y1="489" x2="1158" y2="489"/><line x1="334" y1="564" x2="1158" y2="564"/><line x1="334" y1="639" x2="1158" y2="639"/><line x1="334" y1="714" x2="1158" y2="714"/><line x1="334" y1="789" x2="1158" y2="789"/></g>
  <g fill="#8f7d8b" font-size="13" font-family="Arial, sans-serif"><text x="350" y="457">09:00</text><text x="350" y="532">10:00</text><text x="350" y="607">11:00</text><text x="350" y="682">12:00</text><text x="350" y="757">01:00</text></g>
  <rect x="458" y="426" width="225" height="51" rx="11" fill="#3a2633" stroke="#75405d"/><text x="476" y="448" fill="#ffd5e8" font-size="13" font-family="Arial, sans-serif">Corte clásico</text><text x="476" y="466" fill="#bb8ca4" font-size="11" font-family="Arial, sans-serif">09:00 · Confirmada</text>
  <rect x="708" y="501" width="225" height="51" rx="11" fill="#223345" stroke="#395f82"/><text x="726" y="523" fill="#d7ebff" font-size="13" font-family="Arial, sans-serif">Consulta inicial</text><text x="726" y="541" fill="#88a8c5" font-size="11" font-family="Arial, sans-serif">10:00 · Pendiente</text>
  <rect x="958" y="576" width="190" height="51" rx="11" fill="#26372e" stroke="#3c7658"/><text x="976" y="598" fill="#d7f5e2" font-size="13" font-family="Arial, sans-serif">Servicio completo</text><text x="976" y="616" fill="#8ebb9d" font-size="11" font-family="Arial, sans-serif">11:00 · Confirmada</text>
  <rect x="458" y="651" width="225" height="51" rx="11" fill="#3a2633" stroke="#75405d"/><text x="476" y="673" fill="#ffd5e8" font-size="13" font-family="Arial, sans-serif">Corte y barba</text><text x="476" y="691" fill="#bb8ca4" font-size="11" font-family="Arial, sans-serif">12:00 · Confirmada</text>
  <g fill="#27202b"><rect x="708" y="426" width="225" height="51" rx="11"/><rect x="958" y="426" width="190" height="51" rx="11"/><rect x="458" y="501" width="225" height="51" rx="11"/><rect x="958" y="501" width="190" height="51" rx="11"/></g>
  <g fill="#7f6e7b" font-size="12" font-family="Arial, sans-serif"><text x="780" y="457">Disponible</text><text x="1010" y="457">Disponible</text><text x="530" y="532">Disponible</text><text x="1010" y="532">Disponible</text></g>

  <rect x="1212" y="291" width="316" height="526" rx="20" fill="#1d1722" stroke="#392b38"/>
  <text x="1240" y="333" fill="#fff" font-size="19" font-weight="700" font-family="Arial, sans-serif">Próximas citas</text>
  <g font-family="Arial, sans-serif"><rect x="1240" y="365" width="260" height="91" rx="14" fill="#251c29"/><text x="1260" y="393" fill="#ff8fc5" font-size="14" font-weight="700">10:30</text><text x="1260" y="418" fill="#f2e9ef" font-size="14">Corte clásico</text><text x="1260" y="439" fill="#8f7d8b" font-size="12">Profesional 01 · 30 min</text><rect x="1410" y="382" width="72" height="25" rx="12" fill="#3b2a35"/><text x="1423" y="399" fill="#ffacd2" font-size="11">Confirmada</text>
  <rect x="1240" y="470" width="260" height="91" rx="14" fill="#251c29"/><text x="1260" y="498" fill="#74a7ff" font-size="14" font-weight="700">11:00</text><text x="1260" y="523" fill="#f2e9ef" font-size="14">Consulta inicial</text><text x="1260" y="544" fill="#8f7d8b" font-size="12">Profesional 02 · 45 min</text>
  <rect x="1240" y="575" width="260" height="91" rx="14" fill="#251c29"/><text x="1260" y="603" fill="#55dfae" font-size="14" font-weight="700">12:00</text><text x="1260" y="628" fill="#f2e9ef" font-size="14">Servicio completo</text><text x="1260" y="649" fill="#8f7d8b" font-size="12">Profesional 03 · 60 min</text></g>
  <rect x="1240" y="701" width="260" height="77" rx="14" fill="#2b1d28" stroke="#623650"/><text x="1261" y="728" fill="#d79db9" font-size="12" font-family="Arial, sans-serif">RECORDATORIO</text><text x="1261" y="752" fill="#f0dfe8" font-size="13" font-family="Arial, sans-serif">2 citas esperan confirmación</text>
</svg>
