<svg xmlns="http://www.w3.org/2000/svg" width="1600" height="900" viewBox="0 0 1600 900" role="img" aria-labelledby="title desc">
  <title id="title">Dashboard de finanzas personales MiPresupuesto</title>
  <desc id="desc">Panel mensual con ingresos, gastos, ahorro, presupuesto, tendencia y distribución por categorías.</desc>
  <defs><linearGradient id="bg" x1="0" y1="0" x2="1" y2="1"><stop stop-color="#0d2721"/><stop offset="1" stop-color="#081511"/></linearGradient><filter id="s"><feDropShadow dy="15" stdDeviation="18" flood-opacity=".22"/></filter></defs>
  <rect width="1600" height="900" rx="32" fill="url(#bg)"/>
  <rect x="35" y="35" width="1530" height="830" rx="25" fill="#101d1a" stroke="#25443a"/>
  <rect x="35" y="35" width="1530" height="78" rx="25" fill="#13241f"/>
  <circle cx="84" cy="74" r="21" fill="#55dfae"/><path d="M75 79c8 8 18 4 18-3 0-10-17-5-17-14 0-7 10-10 18-4M85 50v48" stroke="#0b211a" stroke-width="3" fill="none"/>
  <text x="119" y="82" fill="#f0f8f5" font-size="28" font-weight="700" font-family="Arial, sans-serif">MiPresupuesto</text>
  <g fill="#94a9a2" font-size="16" font-family="Arial, sans-serif"><text x="995" y="80">Resumen</text><text x="1090" y="80">Movimientos</text><text x="1218" y="80">Presupuestos</text></g>
  <rect x="1365" y="55" width="166" height="42" rx="12" fill="#55dfae"/><text x="1397" y="82" fill="#0d211b" font-size="15" font-weight="700" font-family="Arial, sans-serif">Agosto 2026</text>
  <text x="84" y="165" fill="#f5faf8" font-size="31" font-weight="700" font-family="Arial, sans-serif">Resumen mensual</text><text x="84" y="194" fill="#7f9990" font-size="15" font-family="Arial, sans-serif">Datos ficticios para demostrar el análisis</text>
  <g filter="url(#s)"><rect x="84" y="229" width="338" height="141" rx="18" fill="#152722"/><rect x="442" y="229" width="338" height="141" rx="18" fill="#152722"/><rect x="800" y="229" width="338" height="141" rx="18" fill="#152722"/><rect x="1158" y="229" width="373" height="141" rx="18" fill="#183027" stroke="#2a624f"/></g>
  <g font-family="Arial, sans-serif"><text x="112" y="268" fill="#829b92" font-size="14">INGRESOS</text><text x="112" y="326" fill="#fff" font-size="39" font-weight="700">S/ 3,450</text><text x="112" y="351" fill="#55dfae" font-size="13">100% registrado</text>
  <text x="470" y="268" fill="#829b92" font-size="14">GASTOS</text><text x="470" y="326" fill="#fff" font-size="39" font-weight="700">S/ 2,180</text><text x="470" y="351" fill="#ffad73" font-size="13">63.2% del ingreso</text>
  <text x="828" y="268" fill="#829b92" font-size="14">AHORRO</text><text x="828" y="326" fill="#fff" font-size="39" font-weight="700">S/ 1,270</text><text x="828" y="351" fill="#55dfae" font-size="13">Meta superada en S/ 270</text>
  <text x="1186" y="268" fill="#8bb6a6" font-size="14">PRESUPUESTO UTILIZADO</text><text x="1186" y="326" fill="#55dfae" font-size="39" font-weight="700">78%</text></g>
  <rect x="1280" y="302" width="214" height="12" rx="6" fill="#284039"/><rect x="1280" y="302" width="167" height="12" rx="6" fill="#55dfae"/>
  <text x="1280" y="343" fill="#8da39b" font-size="13" font-family="Arial, sans-serif">S/ 620 disponibles</text>

  <rect x="84" y="398" width="930" height="402" rx="20" fill="#13241f" stroke="#274139"/>
  <text x="116" y="442" fill="#fff" font-size="20" font-weight="700" font-family="Arial, sans-serif">Evolución del gasto</text><text x="116" y="467" fill="#789087" font-size="14" font-family="Arial, sans-serif">Acumulado semanal frente al presupuesto</text>
  <g stroke="#294039"><line x1="140" y1="707" x2="970" y2="707"/><line x1="140" y1="639" x2="970" y2="639"/><line x1="140" y1="571" x2="970" y2="571"/><line x1="140" y1="503" x2="970" y2="503"/></g>
  <path d="M160 684 C270 662 308 636 390 642 S515 590 600 602 S735 530 814 548 S905 485 950 504" fill="none" stroke="#55dfae" stroke-width="6"/>
  <path d="M160 684 C270 662 308 636 390 642 S515 590 600 602 S735 530 814 548 S905 485 950 504 L950 707 L160 707Z" fill="#55dfae" opacity=".09"/>
  <path d="M160 680 L950 515" fill="none" stroke="#f2c55c" stroke-width="3" stroke-dasharray="10 9" opacity=".75"/>
  <g fill="#55dfae"><circle cx="160" cy="684" r="7"/><circle cx="390" cy="642" r="7"/><circle cx="600" cy="602" r="7"/><circle cx="814" cy="548" r="7"/><circle cx="950" cy="504" r="7"/></g>
  <g fill="#789087" font-size="13" font-family="Arial, sans-serif"><text x="145" y="742">01 Ago</text><text x="360" y="742">08 Ago</text><text x="570" y="742">15 Ago</text><text x="785" y="742">22 Ago</text><text x="915" y="742">31 Ago</text></g>

  <rect x="1040" y="398" width="491" height="402" rx="20" fill="#13241f" stroke="#274139"/>
  <text x="1072" y="442" fill="#fff" font-size="20" font-weight="700" font-family="Arial, sans-serif">Gasto por categoría</text><text x="1072" y="467" fill="#789087" font-size="14" font-family="Arial, sans-serif">Distribución del mes</text>
  <circle cx="1200" cy="612" r="92" fill="none" stroke="#273c36" stroke-width="34"/>
  <circle cx="1200" cy="612" r="92" fill="none" stroke="#55dfae" stroke-width="34" stroke-dasharray="190 578" stroke-linecap="round" transform="rotate(-90 1200 612)"/>
  <circle cx="1200" cy="612" r="92" fill="none" stroke="#74a7ff" stroke-width="34" stroke-dasharray="135 578" stroke-dashoffset="-205" transform="rotate(-90 1200 612)"/>
  <circle cx="1200" cy="612" r="92" fill="none" stroke="#f2c55c" stroke-width="34" stroke-dasharray="105 578" stroke-dashoffset="-355" transform="rotate(-90 1200 612)"/>
  <text x="1172" y="605" fill="#829b92" font-size="13" font-family="Arial, sans-serif">TOTAL</text><text x="1157" y="638" fill="#fff" font-size="23" font-weight="700" font-family="Arial, sans-serif">S/ 2,180</text>
  <g font-family="Arial, sans-serif" font-size="14"><circle cx="1350" cy="546" r="6" fill="#55dfae"/><text x="1367" y="551" fill="#a1b3ad">Alimentación · 33%</text><circle cx="1350" cy="584" r="6" fill="#74a7ff"/><text x="1367" y="589" fill="#a1b3ad">Vivienda · 24%</text><circle cx="1350" cy="622" r="6" fill="#f2c55c"/><text x="1367" y="627" fill="#a1b3ad">Transporte · 18%</text><circle cx="1350" cy="660" r="6" fill="#5c716a"/><text x="1367" y="665" fill="#a1b3ad">Otros · 25%</text></g>
  <rect x="1072" y="725" width="427" height="48" rx="12" fill="#1a3029"/><circle cx="1097" cy="749" r="7" fill="#55dfae"/><text x="1115" y="754" fill="#bdd0c9" font-size="14" font-family="Arial, sans-serif">El ahorro está 27% por encima de la meta</text>
</svg>
